<svg width="791" height="420" viewBox="0 0 791 420" fill="none" xmlns="http://www.w3.org/2000/svg">
<g id="gr_plane">
<g id="airplane">
<path d="M321.5 17.2158L378 63.2158C374.084 81.4071 372.681 91.1295 371.5 107.716V370.216C372.787 395.313 377.24 406.161 392.5 419.216H399.5C414.76 406.161 419.213 395.313 420.5 370.216V107.716C419.319 91.1295 417.916 81.4071 414 63.2158L470.5 17.2158V0.71582L405 24.7158C403.815 16.1053 402.321 11.6935 398 4.71582V99.7158C397.777 101.055 397.472 101.627 396 101.716C394.528 101.627 394.223 101.055 394 99.7158V4.71582C389.679 11.6935 388.185 16.1053 387 24.7158L321.5 0.71582V17.2158ZM541 151.216V162.216C541 162.216 540.439 165.493 538.5 165.716L464 193.716C459.231 195.01 457.767 194.385 457 191.216V180.216L429 190.716V273.716L569 173.216C574.716 169.364 576.721 166.43 578 159.716V138.216L541 151.216ZM214 159.716C215.279 166.43 217.284 169.364 223 173.216L363 273.716V190.716L335 180.216V191.216C334.233 194.385 332.769 195.01 328 193.716L253.5 165.716C251.561 165.493 251 162.216 251 162.216V151.216L214 138.216V159.716ZM457 262.716C456.725 267.43 457.283 269.447 461.5 270.216H482C484.614 269.575 485.455 268.317 486 264.716V240.716L457 262.716ZM306 264.716C306.545 268.317 307.386 269.575 310 270.216H330.5C334.717 269.447 335.275 267.43 335 262.716L306 240.716V264.716ZM461 179.216V189.716L536.5 162.216V152.216L461 179.216ZM255.5 162.216L331 189.716V179.216L255.5 152.216V162.216Z" fill="white"/>
<path d="M321.5 17.2158L321.184 17.6036L321 17.4535V17.2158H321.5ZM378 63.2158L378.316 62.8281L378.553 63.0215L378.489 63.321L378 63.2158ZM371.5 107.716H371V107.698L371.001 107.68L371.5 107.716ZM371.5 370.216L371.001 370.241L371 370.229V370.216H371.5ZM392.5 419.216V419.716H392.315L392.175 419.596L392.5 419.216ZM399.5 419.216L399.825 419.596L399.685 419.716H399.5V419.216ZM420.5 370.216H421V370.229L420.999 370.241L420.5 370.216ZM420.5 107.716L420.999 107.68L421 107.698V107.716H420.5ZM414 63.2158L413.511 63.321L413.447 63.0215L413.684 62.8281L414 63.2158ZM470.5 17.2158H471V17.4535L470.816 17.6036L470.5 17.2158ZM470.5 0.71582L470.328 0.246344L471 0.000106454V0.71582H470.5ZM405 24.7158L405.172 25.1853L404.589 25.3988L404.505 24.784L405 24.7158ZM398 4.71582H397.5V2.95886L398.425 4.45256L398 4.71582ZM398 99.7158H398.5V99.7572L398.493 99.798L398 99.7158ZM396 101.716L396.03 102.215L396 102.217L395.97 102.215L396 101.716ZM394 99.7158L393.507 99.798L393.5 99.7572V99.7158H394ZM394 4.71582L393.575 4.45256L394.5 2.95886V4.71582H394ZM387 24.7158L387.495 24.784L387.411 25.3988L386.828 25.1853L387 24.7158ZM321.5 0.71582H321V0.000106454L321.672 0.246344L321.5 0.71582ZM541 151.216H540.5V150.862L540.834 150.744L541 151.216ZM541 162.216H541.5V162.258L541.493 162.3L541 162.216ZM538.5 165.716L538.324 165.248L538.382 165.226L538.443 165.219L538.5 165.716ZM464 193.716L464.176 194.184L464.154 194.192L464.131 194.198L464 193.716ZM457 191.216L456.514 191.333L456.5 191.275V191.216H457ZM457 180.216L456.824 179.748L457.5 179.494V180.216H457ZM429 190.716H428.5V190.369L428.824 190.248L429 190.716ZM429 273.716L429.292 274.122L428.5 274.69V273.716H429ZM569 173.216L568.708 172.81L568.714 172.805L568.721 172.801L569 173.216ZM578 159.716H578.5V159.763L578.491 159.809L578 159.716ZM578 138.216L577.834 137.744L578.5 137.51V138.216H578ZM214 159.716L213.509 159.809L213.5 159.763V159.716H214ZM223 173.216L223.279 172.801L223.286 172.805L223.292 172.81L223 173.216ZM363 273.716H363.5V274.69L362.708 274.122L363 273.716ZM363 190.716L363.176 190.248L363.5 190.369V190.716H363ZM335 180.216H334.5V179.494L335.176 179.748L335 180.216ZM335 191.216H335.5V191.275L335.486 191.333L335 191.216ZM328 193.716L327.869 194.198L327.846 194.192L327.824 194.184L328 193.716ZM253.5 165.716L253.557 165.219L253.618 165.226L253.676 165.248L253.5 165.716ZM251 162.216L250.507 162.3L250.5 162.258V162.216H251ZM251 151.216L251.166 150.744L251.5 150.862V151.216H251ZM214 138.216H213.5V137.51L214.166 137.744L214 138.216ZM457 262.716L456.501 262.687L456.514 262.457L456.698 262.317L457 262.716ZM461.5 270.216V270.716H461.455L461.41 270.708L461.5 270.216ZM482 270.216L482.119 270.701L482.06 270.716H482V270.216ZM486 264.716H486.5V264.753L486.494 264.791L486 264.716ZM486 240.716L485.698 240.317L486.5 239.709V240.716H486ZM306 264.716L305.506 264.791L305.5 264.753V264.716H306ZM310 270.216V270.716H309.94L309.881 270.701L310 270.216ZM330.5 270.216L330.59 270.708L330.545 270.716H330.5V270.216ZM335 262.716L335.302 262.317L335.486 262.457L335.499 262.687L335 262.716ZM306 240.716H305.5V239.709L306.302 240.317L306 240.716ZM461 179.216H460.5V178.864L460.832 178.745L461 179.216ZM461 189.716L461.171 190.186L460.5 190.43V189.716H461ZM536.5 162.216H537V162.566L536.671 162.686L536.5 162.216ZM536.5 152.216L536.332 151.745L537 151.506V152.216H536.5ZM255.5 162.216L255.329 162.686L255 162.566V162.216H255.5ZM331 189.716H331.5V190.43L330.829 190.186L331 189.716ZM331 179.216L331.168 178.745L331.5 178.864V179.216H331ZM255.5 152.216H255V151.506L255.668 151.745L255.5 152.216ZM321.5 17.2158L321.816 16.8281L378.316 62.8281L378 63.2158L377.684 63.6036L321.184 17.6036L321.5 17.2158ZM378 63.2158L378.489 63.321C374.577 81.4915 373.178 91.1905 371.999 107.751L371.5 107.716L371.001 107.68C372.184 91.0685 373.591 81.3227 377.511 63.1106L378 63.2158ZM371.5 107.716H372V370.216H371.5H371V107.716H371.5ZM371.5 370.216L371.999 370.19C372.642 382.721 374.073 391.637 377.22 399.036C380.362 406.423 385.231 412.339 392.825 418.836L392.5 419.216L392.175 419.596C384.509 413.037 379.521 407.002 376.3 399.427C373.084 391.864 371.645 382.808 371.001 370.241L371.5 370.216ZM392.5 419.216V418.716H399.5V419.216V419.716H392.5V419.216ZM399.5 419.216L399.175 418.836C406.769 412.339 411.638 406.423 414.78 399.036C417.927 391.637 419.358 382.721 420.001 370.19L420.5 370.216L420.999 370.241C420.355 382.808 418.916 391.864 415.7 399.427C412.479 407.002 407.491 413.037 399.825 419.596L399.5 419.216ZM420.5 370.216H420V107.716H420.5H421V370.216H420.5ZM420.5 107.716L420.001 107.751C418.822 91.1905 417.423 81.4915 413.511 63.321L414 63.2158L414.489 63.1106C418.409 81.3227 419.816 91.0685 420.999 107.68L420.5 107.716ZM414 63.2158L413.684 62.8281L470.184 16.8281L470.5 17.2158L470.816 17.6036L414.316 63.6036L414 63.2158ZM470.5 17.2158H470V0.71582H470.5H471V17.2158H470.5ZM470.5 0.71582L470.672 1.1853L405.172 25.1853L405 24.7158L404.828 24.2463L470.328 0.246344L470.5 0.71582ZM405 24.7158L404.505 24.784C403.328 16.2352 401.856 11.8913 397.575 4.97908L398 4.71582L398.425 4.45256C402.787 11.4958 404.301 15.9754 405.495 24.6476L405 24.7158ZM398 4.71582H398.5V99.7158H398H397.5V4.71582H398ZM398 99.7158L398.493 99.798C398.382 100.463 398.236 101.077 397.841 101.518C397.422 101.985 396.816 102.167 396.03 102.215L396 101.716L395.97 101.217C396.656 101.175 396.938 101.027 397.096 100.851C397.277 100.649 397.395 100.308 397.507 99.6337L398 99.7158ZM396 101.716L395.97 102.215C395.184 102.167 394.578 101.985 394.159 101.518C393.764 101.077 393.618 100.463 393.507 99.798L394 99.7158L394.493 99.6337C394.605 100.308 394.723 100.649 394.904 100.851C395.062 101.027 395.344 101.175 396.03 101.217L396 101.716ZM394 99.7158H393.5V4.71582H394H394.5V99.7158H394ZM394 4.71582L394.425 4.97908C390.144 11.8913 388.672 16.2352 387.495 24.784L387 24.7158L386.505 24.6476C387.699 15.9754 389.213 11.4958 393.575 4.45256L394 4.71582ZM387 24.7158L386.828 25.1853L321.328 1.1853L321.5 0.71582L321.672 0.246344L387.172 24.2463L387 24.7158ZM321.5 0.71582H322V17.2158H321.5H321V0.71582H321.5ZM541 151.216H541.5V162.216H541H540.5V151.216H541ZM541 162.216C541.493 162.3 541.493 162.3 541.493 162.3C541.493 162.301 541.493 162.301 541.493 162.301C541.493 162.301 541.493 162.301 541.493 162.302C541.492 162.303 541.492 162.304 541.492 162.305C541.492 162.307 541.491 162.31 541.49 162.314C541.489 162.322 541.487 162.333 541.484 162.346C541.479 162.373 541.472 162.412 541.461 162.461C541.441 162.558 541.409 162.695 541.365 162.86C541.278 163.188 541.139 163.632 540.933 164.088C540.541 164.955 539.814 166.068 538.557 166.213L538.5 165.716L538.443 165.219C539.126 165.141 539.648 164.503 540.022 163.676C540.198 163.285 540.321 162.896 540.399 162.602C540.438 162.456 540.465 162.336 540.483 162.253C540.492 162.212 540.498 162.18 540.502 162.159C540.504 162.149 540.505 162.141 540.506 162.136C540.507 162.134 540.507 162.133 540.507 162.132C540.507 162.131 540.507 162.131 540.507 162.131C540.507 162.131 540.507 162.131 540.507 162.131C540.507 162.131 540.507 162.131 540.507 162.131C540.507 162.131 540.507 162.132 541 162.216ZM538.5 165.716L538.676 166.184L464.176 194.184L464 193.716L463.824 193.248L538.324 165.248L538.5 165.716ZM464 193.716L464.131 194.198C462.926 194.525 461.909 194.737 461.047 194.815C460.186 194.893 459.45 194.839 458.826 194.609C457.524 194.128 456.908 192.961 456.514 191.333L457 191.216L457.486 191.098C457.859 192.64 458.359 193.37 459.172 193.671C459.606 193.831 460.178 193.889 460.957 193.819C461.735 193.749 462.689 193.554 463.869 193.233L464 193.716ZM457 191.216H456.5V180.216H457H457.5V191.216H457ZM457 180.216L457.176 180.684L429.176 191.184L429 190.716L428.824 190.248L456.824 179.748L457 180.216ZM429 190.716H429.5V273.716H429H428.5V190.716H429ZM429 273.716L428.708 273.31L568.708 172.81L569 173.216L569.292 173.622L429.292 274.122L429 273.716ZM569 173.216L568.721 172.801C571.555 170.891 573.425 169.237 574.748 167.261C576.071 165.286 576.875 162.948 577.509 159.622L578 159.716L578.491 159.809C577.846 163.198 577.008 165.684 575.579 167.817C574.151 169.949 572.161 171.689 569.279 173.63L569 173.216ZM578 159.716H577.5V138.216H578H578.5V159.716H578ZM578 138.216L578.166 138.688L541.166 151.688L541 151.216L540.834 150.744L577.834 137.744L578 138.216ZM214 159.716L214.491 159.622C215.125 162.948 215.929 165.286 217.252 167.261C218.575 169.237 220.445 170.891 223.279 172.801L223 173.216L222.721 173.63C219.839 171.689 217.849 169.949 216.421 167.817C214.992 165.684 214.154 163.198 213.509 159.809L214 159.716ZM223 173.216L223.292 172.81L363.292 273.31L363 273.716L362.708 274.122L222.708 173.622L223 173.216ZM363 273.716H362.5V190.716H363H363.5V273.716H363ZM363 190.716L362.824 191.184L334.824 180.684L335 180.216L335.176 179.748L363.176 190.248L363 190.716ZM335 180.216H335.5V191.216H335H334.5V180.216H335ZM335 191.216L335.486 191.333C335.092 192.961 334.476 194.128 333.174 194.609C332.55 194.839 331.814 194.893 330.953 194.815C330.091 194.737 329.074 194.525 327.869 194.198L328 193.716L328.131 193.233C329.311 193.554 330.265 193.749 331.043 193.819C331.822 193.889 332.394 193.831 332.827 193.671C333.641 193.37 334.141 192.64 334.514 191.098L335 191.216ZM328 193.716L327.824 194.184L253.324 166.184L253.5 165.716L253.676 165.248L328.176 193.248L328 193.716ZM253.5 165.716L253.443 166.213C252.186 166.068 251.459 164.955 251.067 164.088C250.861 163.632 250.722 163.188 250.635 162.86C250.591 162.695 250.559 162.558 250.539 162.461C250.528 162.412 250.521 162.373 250.516 162.346C250.513 162.333 250.511 162.322 250.51 162.314C250.509 162.31 250.508 162.307 250.508 162.305C250.508 162.304 250.508 162.303 250.507 162.302C250.507 162.301 250.507 162.301 250.507 162.301C250.507 162.301 250.507 162.301 250.507 162.3C250.507 162.3 250.507 162.3 251 162.216C251.493 162.132 251.493 162.131 251.493 162.131C251.493 162.131 251.493 162.131 251.493 162.131C251.493 162.131 251.493 162.131 251.493 162.131C251.493 162.131 251.493 162.131 251.493 162.132C251.493 162.133 251.493 162.134 251.494 162.136C251.495 162.141 251.496 162.149 251.498 162.159C251.502 162.18 251.508 162.212 251.517 162.253C251.535 162.336 251.562 162.456 251.601 162.602C251.679 162.896 251.802 163.285 251.978 163.676C252.352 164.503 252.874 165.141 253.557 165.219L253.5 165.716ZM251 162.216H250.5V151.216H251H251.5V162.216H251ZM251 151.216L250.834 151.688L213.834 138.688L214 138.216L214.166 137.744L251.166 150.744L251 151.216ZM214 138.216H214.5V159.716H214H213.5V138.216H214ZM457 262.716L457.499 262.745C457.361 265.114 457.449 266.661 458.007 267.711C458.535 268.703 459.545 269.351 461.59 269.724L461.5 270.216L461.41 270.708C459.237 270.312 457.861 269.567 457.124 268.18C456.418 266.851 456.364 265.031 456.501 262.687L457 262.716ZM461.5 270.216V269.716H482V270.216V270.716H461.5V270.216ZM482 270.216L481.881 269.73C483.124 269.426 483.859 268.997 484.369 268.285C484.9 267.543 485.234 266.432 485.506 264.641L486 264.716L486.494 264.791C486.22 266.601 485.861 267.919 485.182 268.867C484.482 269.845 483.49 270.365 482.119 270.701L482 270.216ZM486 264.716H485.5V240.716H486H486.5V264.716H486ZM486 240.716L486.302 241.114L457.302 263.114L457 262.716L456.698 262.317L485.698 240.317L486 240.716ZM306 264.716L306.494 264.641C306.766 266.432 307.1 267.543 307.631 268.285C308.141 268.997 308.876 269.426 310.119 269.73L310 270.216L309.881 270.701C308.51 270.365 307.518 269.845 306.818 268.867C306.139 267.919 305.78 266.601 305.506 264.791L306 264.716ZM310 270.216V269.716H330.5V270.216V270.716H310V270.216ZM330.5 270.216L330.41 269.724C332.455 269.351 333.465 268.703 333.993 267.711C334.551 266.661 334.639 265.114 334.501 262.745L335 262.716L335.499 262.687C335.636 265.031 335.582 266.851 334.876 268.18C334.139 269.567 332.763 270.312 330.59 270.708L330.5 270.216ZM335 262.716L334.698 263.114L305.698 241.114L306 240.716L306.302 240.317L335.302 262.317L335 262.716ZM306 240.716H306.5V264.716H306H305.5V240.716H306ZM461 179.216H461.5V189.716H461H460.5V179.216H461ZM461 189.716L460.829 189.246L536.329 161.746L536.5 162.216L536.671 162.686L461.171 190.186L461 189.716ZM536.5 162.216H536V152.216H536.5H537V162.216H536.5ZM536.5 152.216L536.668 152.687L461.168 179.687L461 179.216L460.832 178.745L536.332 151.745L536.5 152.216ZM255.5 162.216L255.671 161.746L331.171 189.246L331 189.716L330.829 190.186L255.329 162.686L255.5 162.216ZM331 189.716H330.5V179.216H331H331.5V189.716H331ZM331 179.216L330.832 179.687L255.332 152.687L255.5 152.216L255.668 151.745L331.168 178.745L331 179.216ZM255.5 152.216H256V162.216H255.5H255V152.216H255.5Z" fill="black"/>
</g>
<path id="Vector 3" d="M412.5 385.716C398.975 392.449 391.425 391.914 378 385.716C381.04 399.076 384.969 404.229 396.5 408.716C407.556 402.811 411.055 397.773 412.5 385.716Z" fill="black" stroke="black"/>
<g id="aircloud_2" filter="url(#filter0_f_73_286)">
<ellipse cx="257" cy="272.716" rx="193" ry="63" fill="white"/>
</g>
<g id="aircloud_1" filter="url(#filter1_f_73_286)">
<ellipse cx="534" cy="170.716" rx="193" ry="63" fill="white"/>
</g>
</g>
<defs>
<filter id="filter0_f_73_286" x="0" y="145.716" width="514" height="254" filterUnits="userSpaceOnUse" color-interpolation-filters="sRGB">
<feFlood flood-opacity="0" result="BackgroundImageFix"/>
<feBlend mode="normal" in="SourceGraphic" in2="BackgroundImageFix" result="shape"/>
<feGaussianBlur stdDeviation="32" result="effect1_foregroundBlur_73_286"/>
</filter>
<filter id="filter1_f_73_286" x="277" y="43.7158" width="514" height="254" filterUnits="userSpaceOnUse" color-interpolation-filters="sRGB">
<feFlood flood-opacity="0" result="BackgroundImageFix"/>
<feBlend mode="normal" in="SourceGraphic" in2="BackgroundImageFix" result="shape"/>
<feGaussianBlur stdDeviation="32" result="effect1_foregroundBlur_73_286"/>
</filter>
</defs>
</svg>
