<svg width="140" height="84" viewBox="0 0 140 84" fill="none" xmlns="http://www.w3.org/2000/svg">
<g id="hat">
<g id="hat_string">
<path id="Vector" d="M116.16 45.6038V27.9136H113.5L113.459 45.6038H116.16Z" fill="#FF0022"/>
<path id="Vector_2" d="M111.619 49.7488V60.0768C111.619 61.839 113.045 63.2671 114.81 63.2671C116.572 63.2671 118 61.839 118 60.0768V49.7488C118 48.8763 117.648 48.0862 117.082 47.5107C115.308 47.5107 114.313 47.5107 112.539 47.5107C111.972 48.0862 111.619 48.8763 111.619 49.7488Z" fill="#FF0022"/>
<path id="Vector_3" d="M112.131 45.6035V47.5103H112.539H117.082H117.486V45.6035H116.16H113.459H112.131Z" fill="#E9DB3F"/>
</g>
<g id="hat_body">
<path id="Vector_4" d="M99.9165 38.4375L69.6546 48.6988C69.3768 48.7946 69.0838 48.8419 68.7923 48.8419C68.5001 48.8419 68.2048 48.7946 67.927 48.6988L37.6666 38.4375V63.8158H37.6986L37.6299 64.1645C37.6299 67.1839 51.5835 73.9246 68.774 73.9246C85.9637 73.9246 99.8807 67.1839 99.8807 64.1645L99.8097 63.8158H99.9165V38.4375Z" fill="white"/>
<path id="Vector_5" d="M37.6666 33.4226L68.7924 43.9768L99.9166 33.4226L113.459 28.8289L116.16 27.9134L117.582 27.4311L68.7924 11L20 27.4311L37.6666 33.4226Z" fill="white"/>
</g>
</g>
</svg>
