<svg width="98" height="63" viewBox="0 0 98 63" fill="none" xmlns="http://www.w3.org/2000/svg">
<path d="M96.1601 34.6038V16.9136L93.459 17.8292V34.6038H96.1601Z" fill="#FF0022"/>
<path d="M79.9165 27.4375L49.6546 37.6988C49.3768 37.7946 49.0838 37.8419 48.7923 37.8419C48.5001 37.8419 48.2048 37.7946 47.927 37.6988L17.6666 27.4375V52.8158H17.6986L17.6299 53.1645C17.6299 56.1839 31.5835 62.9246 48.774 62.9246C65.9637 62.9246 79.8807 56.1839 79.8807 53.1645L79.8097 52.8158H79.9165V27.4375Z" fill="white"/>
<path d="M17.6666 22.4226L48.7924 32.9768L79.9166 22.4226L93.459 17.8289L96.1601 16.9134L97.5824 16.4311L48.7924 0L0 16.4311L17.6666 22.4226Z" fill="white"/>
<path d="M91.6187 38.7488V49.0768C91.6187 50.839 93.0455 52.2671 94.8097 52.2671C96.5723 52.2671 98 50.839 98 49.0768V38.7488C98 37.8763 97.6483 37.0862 97.082 36.5107H92.5388C91.9719 37.0862 91.6187 37.8763 91.6187 38.7488Z" fill="#FF0022"/>
<path d="M92.1313 34.6035V36.5103H92.5387H97.0818H97.4863V34.6035H96.1601H93.459H92.1313Z" fill="#E9DB3F"/>
</svg>
