<svg width="196" height="116" viewBox="0 0 196 116" fill="none" xmlns="http://www.w3.org/2000/svg">
<g id="gr_helmet">
<g id="helmet">
<path d="M0.5 106.845C0.973592 103.512 2.28575 102.193 5.90416 100.54H11.3083V86.1288L78.8603 86.354L82.0127 94.4602L86.9665 99.1888L94.172 102.566H101.378L109.033 99.1888L113.987 94.4602L117.365 86.354H185.367V100.54H189.645C193.372 101.825 194.482 103.474 195.5 106.845V108.646C194.546 112.591 193.429 114.041 189.645 114.951H5.90416C2.08134 114.24 0.710795 112.809 0.5 108.646V106.845Z" fill="white"/>
<path d="M78.8603 81.175H12.6594C21.4216 44.5912 34.4282 28.9393 75.2575 11.5965V59.3332H82.0127V2.58953C82.1259 0.721447 82.539 0.322242 83.8141 0.562975H112.186C113.525 1.00338 113.987 2.58953 113.987 2.58953V59.3332H120.743V11.5965C156.825 23.386 170.828 38.2897 183.566 81.175H117.365L113.987 72.1681L109.033 66.7639L101.378 64.0618H94.172L86.9665 66.7639L82.0127 72.1681L78.8603 81.175Z" fill="white"/>
<path d="M0.5 106.845C0.973592 103.512 2.28575 102.193 5.90416 100.54H11.3083V86.1288L78.8603 86.354L82.0127 94.4602L86.9665 99.1888L94.172 102.566H101.378L109.033 99.1888L113.987 94.4602L117.365 86.354H185.367V100.54H189.645C193.372 101.825 194.482 103.474 195.5 106.845V108.646C194.546 112.591 193.429 114.041 189.645 114.951H5.90416C2.08134 114.24 0.710795 112.809 0.5 108.646V106.845Z" stroke="white"/>
<path d="M78.8603 81.175H12.6594C21.4216 44.5912 34.4282 28.9393 75.2575 11.5965V59.3332H82.0127V2.58953C82.1259 0.721447 82.539 0.322242 83.8141 0.562975H112.186C113.525 1.00338 113.987 2.58953 113.987 2.58953V59.3332H120.743V11.5965C156.825 23.386 170.828 38.2897 183.566 81.175H117.365L113.987 72.1681L109.033 66.7639L101.378 64.0618H94.172L86.9665 66.7639L82.0127 72.1681L78.8603 81.175Z" stroke="white"/>
</g>
<circle id="light" cx="98.221" cy="82.9131" r="20.1663" fill="url(#paint0_radial_77_96)" stroke="black" stroke-width="2"/>
<path id="ray_2" d="M134.5 59.4505L138.077 46.4998H143.573L139.898 54.3329L146.5 51.9307L134.5 75.4998L139.898 57.675L134.5 59.4505Z" fill="#FFC400"/>
<path id="ray_1" d="M57.5 59.4505L53.9228 46.4998H48.4268L52.1016 54.3329L45.5 51.9307L57.5 75.4998L52.1016 57.675L57.5 59.4505Z" fill="#FFC400"/>
</g>
<defs>
<radialGradient id="paint0_radial_77_96" cx="0" cy="0" r="1" gradientUnits="userSpaceOnUse" gradientTransform="translate(98.221 82.9131) rotate(90) scale(21.1663)">
<stop stop-color="#FFFDCC"/>
<stop offset="1" stop-color="#FED800"/>
</radialGradient>
</defs>
</svg>
