<svg width="196" height="178" viewBox="0 0 196 178" fill="none" xmlns="http://www.w3.org/2000/svg">
<g id="gr_helmet">
<g id="helmet">
<path d="M0.5 113.345C0.973592 110.012 2.28575 108.693 5.90416 107.04H11.3083V92.629L78.8603 92.8542L82.0127 100.96L86.9665 105.689L94.172 109.067H101.378L109.033 105.689L113.987 100.96L117.365 92.8542H185.367V107.04H189.645C193.372 108.325 194.482 109.975 195.5 113.345V115.146C194.546 119.091 193.429 120.541 189.645 121.451H5.90416C2.08134 120.74 0.710795 119.31 0.5 115.146V113.345Z" fill="white"/>
<path d="M78.8603 87.6752H12.6594C21.4216 51.0915 34.4282 35.4396 75.2575 18.0967V65.8334H82.0127V9.08978C82.1259 7.22169 82.539 6.82249 83.8141 7.06322H112.186C113.525 7.50363 113.987 9.08978 113.987 9.08978V65.8334H120.743V18.0967C156.825 29.8862 170.828 44.7899 183.566 87.6752H117.365L113.987 78.6683L109.033 73.2641L101.378 70.5621H94.172L86.9665 73.2641L82.0127 78.6683L78.8603 87.6752Z" fill="white"/>
<path d="M0.5 113.345C0.973592 110.012 2.28575 108.693 5.90416 107.04H11.3083V92.629L78.8603 92.8542L82.0127 100.96L86.9665 105.689L94.172 109.067H101.378L109.033 105.689L113.987 100.96L117.365 92.8542H185.367V107.04H189.645C193.372 108.325 194.482 109.975 195.5 113.345V115.146C194.546 119.091 193.429 120.541 189.645 121.451H5.90416C2.08134 120.74 0.710795 119.31 0.5 115.146V113.345Z" stroke="white"/>
<path d="M78.8603 87.6752H12.6594C21.4216 51.0915 34.4282 35.4396 75.2575 18.0967V65.8334H82.0127V9.08978C82.1259 7.22169 82.539 6.82249 83.8141 7.06322H112.186C113.525 7.50363 113.987 9.08978 113.987 9.08978V65.8334H120.743V18.0967C156.825 29.8862 170.828 44.7899 183.566 87.6752H117.365L113.987 78.6683L109.033 73.2641L101.378 70.5621H94.172L86.9665 73.2641L82.0127 78.6683L78.8603 87.6752Z" stroke="white"/>
</g>
<circle id="light" cx="98.221" cy="89.4135" r="20.1663" fill="url(#paint0_radial_78_118)" stroke="black" stroke-width="2"/>
<path id="ray_2" d="M134.5 65.9508L138.077 53H143.573L139.898 60.8331L146.5 58.431L134.5 82L139.898 64.1753L134.5 65.9508Z" fill="#FFC400"/>
<path id="ray_1" d="M57.5 65.9508L53.9228 53H48.4268L52.1016 60.8331L45.5 58.431L57.5 82L52.1016 64.1753L57.5 65.9508Z" fill="#FFC400"/>
<circle id="shine" cx="98.5" cy="89" r="89" fill="url(#paint1_radial_78_118)" fill-opacity="0.57"/>
</g>
<defs>
<radialGradient id="paint0_radial_78_118" cx="0" cy="0" r="1" gradientUnits="userSpaceOnUse" gradientTransform="translate(98.221 89.4135) rotate(90) scale(21.1663)">
<stop stop-color="#FFFDCC"/>
<stop offset="1" stop-color="#FED800"/>
</radialGradient>
<radialGradient id="paint1_radial_78_118" cx="0" cy="0" r="1" gradientUnits="userSpaceOnUse" gradientTransform="translate(98.5 89) rotate(90) scale(89)">
<stop offset="0.0240385" stop-color="#E2E4B6"/>
<stop offset="1" stop-color="#EDF096"/>
</radialGradient>
</defs>
</svg>
